<svg xmlns="http://www.w3.org/2000/svg" viewBox="0 0 100 100" aria-label="wb">
<defs>
 <linearGradient id="g" x1="0" y1="0" x2="0" y2="1"><stop offset="0%" stop-color="#eef4fb"/><stop offset="100%" stop-color="#cbd6e5"/></linearGradient>
 <linearGradient id="g2" x1="0" y1="0" x2="1" y2="1"><stop offset="0%" stop-color="#ffffff" stop-opacity=".92"/><stop offset="100%" stop-color="#ffffff" stop-opacity="0"/></linearGradient>
 <filter id="s" x="-20%" y="-20%" width="140%" height="160%"><feDropShadow dx="0" dy="2.4" stdDeviation="1.6" flood-color="rgba(0,0,0,.18)"/></filter>
</defs>
<g filter="url(#s)" fill="url(#g)" stroke="#415062" stroke-width="3" stroke-linecap="round" stroke-linejoin="round"><path d="M50 14 C60 14 67 22 67 30 C67 36 64 41 59 46 C65 51 66 59 61 65 H39 C34 59 35 51 41 46 C36 41 33 36 33 30 C33 22 40 14 50 14 Z"/><path d="M56 20 L44 40" fill="none"/><path d="M42 64 H58 L62 75 H38 Z"/><path d="M23 83 H77 Q81 83 81 87 Q81 91 77 91 H23 Q19 91 19 87 Q19 83 23 83 Z"/><path d="M29 75 H71 Q77 75 77 79 Q77 83 71 83 H29 Q23 83 23 79 Q23 75 29 75 Z"/></g>
<g opacity=".23" fill="url(#g2)"><ellipse cx="47" cy="19" rx="11" ry="4"/><path d="M39 30 C45 27,52 27,58 32 C51 40,46 51,43 66 C40 60,38 48,39 30Z"/></g>
</svg>